<svg width="25" height="13" viewBox="0 0 25 13" fill="none" xmlns="http://www.w3.org/2000/svg">
<path d="M1.21595 0.636152C1.52545 0.346816 1.89189 0.202148 2.31527 0.202148C2.73866 0.202148 3.10468 0.346816 3.41335 0.636152L12.4815 9.1137L21.5806 0.607219C21.8694 0.337172 22.2305 0.202148 22.6638 0.202148C23.0971 0.202148 23.4685 0.346816 23.778 0.636152C24.0875 0.925489 24.2422 1.26806 24.2422 1.66387C24.2422 2.05969 24.0875 2.40187 23.778 2.69044L13.3481 12.4121C13.2243 12.5279 13.0902 12.61 12.9457 12.6586C12.8013 12.7073 12.6466 12.7312 12.4815 12.7304C12.3164 12.7304 12.1617 12.7061 12.0173 12.6575C11.8728 12.6089 11.7387 12.5271 11.6149 12.4121L1.185 2.6615C0.896143 2.39146 0.751715 2.05853 0.751715 1.66272C0.751715 1.2669 0.906461 0.924717 1.21595 0.636152Z" fill="#253038"/>
</svg>
